<?xml version="1.0" encoding="utf-8"?>
<svg viewBox="2.111 7.153 95.798 85.706" xmlns="http://www.w3.org/2000/svg">
  <g data-name="Group">
    <path data-name="Compound Path" d="M14.1,38.06A11.94,11.94,0,1,0,17,61.57l6.53,11.3A11.93,11.93,0,1,0,43.76,84.36H56.89A11.94,11.94,0,1,0,76.73,72.44L83,61.57a11.94,11.94,0,1,0,0-23.13L76.72,27.56A11.93,11.93,0,1,0,56.89,15.64H43.76A11.93,11.93,0,1,0,23.53,27.13L17,38.43A11.88,11.88,0,0,0,14.1,38.06ZM32.34,86.83a5.94,5.94,0,1,1,5.94-5.94A5.94,5.94,0,0,1,32.34,86.83Zm36,0a5.94,5.94,0,1,1,5.94-5.94A5.94,5.94,0,0,1,68.31,86.83ZM85.9,44.06A5.94,5.94,0,1,1,80,50,5.94,5.94,0,0,1,85.9,44.06ZM68.31,13.17a5.94,5.94,0,0,1,2.81,11.17,5.86,5.86,0,0,1-2.81.71,5.94,5.94,0,0,1,0-11.88Zm-36,0a5.94,5.94,0,1,1-5.94,5.94A5.94,5.94,0,0,1,32.34,13.17ZM28.55,30.42A11.9,11.9,0,0,0,44,21.64H56.65a11.87,11.87,0,0,0,14.89,8.95l6.2,10.73a11.88,11.88,0,0,0,0,17.37L71.54,69.41a11.89,11.89,0,0,0-14.9,9H44a11.9,11.9,0,0,0-15.45-8.78L22.26,58.69a11.88,11.88,0,0,0,0-17.37ZM20,50a5.94,5.94,0,1,1-5.94-5.94A5.94,5.94,0,0,1,20,50Z"/>
  </g>
</svg>